# This file uses centimeters as units for non-parametric coordinates.

mtllib HPbar2.mtl
g default
v 14.517835 17.084531 -8.223149
v 16.415036 17.084531 -8.223149
v 14.517835 18.084531 -8.223149
v 16.415036 18.084531 -8.223149
v 14.517835 18.084531 -8.957694
v 16.415036 18.084531 -8.957694
v 14.517835 17.084531 -8.957694
v 16.415036 17.084531 -8.957694
v 14.517835 18.637094 -8.223149
v 16.415036 18.637094 -8.223149
v 16.415036 18.637094 -8.957694
v 14.517835 18.637094 -8.957694
v 14.517835 16.531968 -8.957694
v 16.415036 16.531968 -8.957694
v 16.415036 16.531968 -8.223149
v 14.517835 16.531968 -8.223149
v 33.864941 18.084531 -8.223149
v 33.864941 18.084531 -8.957694
v 33.864941 18.637094 -8.957694
v 33.864941 18.637094 -8.223149
v 33.864941 17.084531 -8.957694
v 33.864941 17.084531 -8.223149
v 33.864941 16.531968 -8.223149
v 33.864941 16.531968 -8.957694
v 35.416846 18.084531 -8.223149
v 35.416846 18.084531 -8.957694
v 35.416846 18.637094 -8.957694
v 35.416846 18.637094 -8.223149
v 35.416846 17.084531 -8.957694
v 35.416846 17.084531 -8.223149
v 35.416846 16.531968 -8.223149
v 35.416846 16.531968 -8.957694
vt 0.375000 0.000000
vt 0.625000 0.000000
vt 0.375000 0.250000
vt 0.625000 0.250000
vt 0.375000 0.500000
vt 0.625000 0.500000
vt 0.375000 0.750000
vt 0.625000 0.750000
vt 0.375000 1.000000
vt 0.625000 1.000000
vt 0.875000 0.000000
vt 0.875000 0.250000
vt 0.125000 0.000000
vt 0.125000 0.250000
vt 0.375000 0.250000
vt 0.625000 0.250000
vt 0.625000 0.500000
vt 0.375000 0.500000
vt 0.375000 0.750000
vt 0.625000 0.750000
vt 0.625000 1.000000
vt 0.375000 1.000000
vt 0.625000 0.250000
vt 0.625000 0.500000
vt 0.625000 0.500000
vt 0.625000 0.250000
vt 0.625000 0.750000
vt 0.625000 1.000000
vt 0.625000 1.000000
vt 0.625000 0.750000
vt 0.625000 0.250000
vt 0.625000 0.500000
vt 0.625000 0.500000
vt 0.625000 0.250000
vt 0.625000 0.750000
vt 0.625000 1.000000
vt 0.625000 1.000000
vt 0.625000 0.750000
vn 0.000000 0.000000 1.000000
vn 0.000000 0.000000 1.000000
vn 0.000000 0.000000 1.000000
vn 0.000000 0.000000 1.000000
vn 0.000000 1.000000 0.000000
vn 0.000000 1.000000 0.000000
vn 0.000000 1.000000 0.000000
vn 0.000000 1.000000 0.000000
vn 0.000000 0.000000 -1.000000
vn 0.000000 0.000000 -1.000000
vn 0.000000 0.000000 -1.000000
vn 0.000000 0.000000 -1.000000
vn 0.000000 -1.000000 0.000000
vn 0.000000 -1.000000 0.000000
vn 0.000000 -1.000000 0.000000
vn 0.000000 -1.000000 0.000000
vn 1.000000 0.000000 0.000000
vn 1.000000 0.000000 0.000000
vn 1.000000 0.000000 0.000000
vn 1.000000 0.000000 0.000000
vn -1.000000 0.000000 0.000000
vn -1.000000 0.000000 0.000000
vn -1.000000 0.000000 0.000000
vn -1.000000 0.000000 0.000000
vn 0.000000 0.000000 1.000000
vn 0.000000 0.000000 1.000000
vn 1.000000 0.000000 0.000000
vn 1.000000 0.000000 0.000000
vn 1.000000 0.000000 0.000000
vn 1.000000 0.000000 0.000000
vn 0.000000 0.000000 -1.000000
vn 0.000000 0.000000 -1.000000
vn -1.000000 0.000000 0.000000
vn -1.000000 0.000000 0.000000
vn 0.000000 0.000000 -1.000000
vn 0.000000 0.000000 -1.000000
vn 1.000000 0.000000 0.000000
vn 1.000000 0.000000 0.000000
vn 1.000000 0.000000 0.000000
vn 1.000000 0.000000 0.000000
vn 0.000000 0.000000 1.000000
vn 0.000000 0.000000 1.000000
vn -1.000000 0.000000 0.000000
vn -1.000000 0.000000 0.000000
vn 0.000000 -1.000000 0.000000
vn 0.000000 -1.000000 0.000000
vn 0.000000 -1.000000 0.000000
vn 0.000000 -1.000000 0.000000
vn 0.000000 0.000000 -1.000000
vn 0.000000 0.000000 -1.000000
vn 0.000000 1.000000 0.000000
vn 0.000000 1.000000 0.000000
vn 0.000000 0.000000 1.000000
vn 0.000000 0.000000 1.000000
vn 0.000000 1.000000 0.000000
vn 0.000000 1.000000 0.000000
vn 0.000000 1.000000 0.000000
vn 0.000000 1.000000 0.000000
vn 0.000000 0.000000 1.000000
vn 0.000000 0.000000 1.000000
vn 0.000000 -1.000000 0.000000
vn 0.000000 -1.000000 0.000000
vn 0.000000 0.000000 -1.000000
vn 0.000000 0.000000 -1.000000
vn 0.000000 0.000000 -1.000000
vn 0.000000 0.000000 -1.000000
vn 0.000000 1.000000 0.000000
vn 0.000000 1.000000 0.000000
vn 0.000000 0.000000 1.000000
vn 0.000000 0.000000 1.000000
vn 0.000000 0.000000 1.000000
vn 0.000000 0.000000 1.000000
vn 0.000000 -1.000000 0.000000
vn 0.000000 -1.000000 0.000000
vn 0.000000 0.000000 -1.000000
vn 0.000000 0.000000 -1.000000
vn 0.000000 0.000000 1.000000
vn 0.000000 0.000000 1.000000
vn 0.000000 0.000000 1.000000
vn 0.000000 0.000000 1.000000
vn -1.000000 0.000000 0.000000
vn -1.000000 0.000000 0.000000
vn -1.000000 0.000000 0.000000
vn -1.000000 0.000000 0.000000
vn 1.000000 0.000000 0.000000
vn 1.000000 0.000000 0.000000
vn 1.000000 0.000000 0.000000
vn 1.000000 0.000000 0.000000
vn 0.000000 0.000000 -1.000000
vn 0.000000 0.000000 -1.000000
vn 0.000000 0.000000 -1.000000
vn 0.000000 0.000000 -1.000000
s 1
g pCube4
usemtl lambert26SG
f 1/1/1 2/2/2 4/4/3 3/3/4
s 2
f 9/15/5 10/16/6 11/17/7 12/18/8
s 3
f 5/5/9 6/6/10 8/8/11 7/7/12
s 4
f 13/19/13 14/20/14 15/21/15 16/22/16
s off
f 2/2/17 8/11/18 6/12/19 4/4/20
s 5
f 7/13/21 1/1/22 3/3/23 5/14/24
s 1
f 3/3/4 4/4/3 10/16/25 9/15/26
s off
f 25/31/27 26/32/28 27/33/29 28/34/30
s 3
f 6/6/10 5/5/9 12/18/31 11/17/32
s 5
f 5/5/24 3/3/23 9/15/33 12/18/34
s 3
f 7/7/12 8/8/11 14/20/35 13/19/36
s off
f 29/35/37 30/36/38 31/37/39 32/38/40
s 1
f 2/10/2 1/9/1 16/22/41 15/21/42
s 5
f 1/9/22 7/7/21 13/19/43 16/22/44
s off
f 4/4/45 6/6/46 18/24/47 17/23/48
s 3
f 6/6/10 11/17/32 19/25/49 18/24/50
s 2
f 11/17/7 10/16/6 20/26/51 19/25/52
s 1
f 10/16/25 4/4/3 17/23/53 20/26/54
s off
f 8/8/55 2/10/56 22/28/57 21/27/58
s 1
f 2/10/2 15/21/42 23/29/59 22/28/60
s 4
f 15/21/15 14/20/14 24/30/61 23/29/62
s 3
f 14/20/35 8/8/11 21/27/63 24/30/64
f 18/24/50 19/25/49 27/33/65 26/32/66
s 2
f 19/25/52 20/26/51 28/34/67 27/33/68
s 1
f 20/26/54 17/23/53 25/31/69 28/34/70
f 22/28/60 23/29/59 31/37/71 30/36/72
s 4
f 23/29/62 24/30/61 32/38/73 31/37/74
s 3
f 24/30/64 21/27/63 29/35/75 32/38/76
s off
f 25/31/77 17/23/78 22/28/79 30/36/80
f 17/23/81 18/24/82 21/27/83 22/28/84
f 26/32/85 25/31/86 30/36/87 29/35/88
f 18/24/89 26/32/90 29/35/91 21/27/92
g default
v 16.299982 17.089984 -8.688464
v 33.793635 17.089984 -8.688464
v 16.299982 18.089984 -8.688464
v 33.793635 18.089984 -8.688464
vt 0.000000 0.000000
vt 1.000000 0.000000
vt 0.000000 1.000000
vt 1.000000 1.000000
vn 0.000000 0.000000 1.000000
vn 0.000000 0.000000 1.000000
vn 0.000000 0.000000 1.000000
vn 0.000000 0.000000 1.000000
s off
g pPlane8
usemtl lambert24SG
f 33/39/93 34/40/94 36/42/95 35/41/96
